<svg xmlns="http://www.w3.org/2000/svg" version="1.1" width="342px" height="342px"
    style="shape-rendering:geometricPrecision; text-rendering:geometricPrecision; image-rendering:optimizeQuality; fill-rule:evenodd; clip-rule:evenodd"
    xmlns:xlink="http://www.w3.org/1999/xlink">
    <g>
        <path style="opacity:1" fill="#e3fdea"
            d="M -0.5,-0.5 C 113.5,-0.5 227.5,-0.5 341.5,-0.5C 341.5,113.5 341.5,227.5 341.5,341.5C 227.5,341.5 113.5,341.5 -0.5,341.5C -0.5,227.5 -0.5,113.5 -0.5,-0.5 Z" />
    </g>
    <g>
        <path style="opacity:1" fill="#e3ecd8"
            d="M 209.5,35.5 C 179.829,26.7169 150.496,27.7169 121.5,38.5C 122.727,36.4195 124.227,34.4195 126,32.5C 126.414,32.9574 126.914,33.2907 127.5,33.5C 134.901,32.2975 142.234,30.7975 149.5,29C 164.167,28.3333 178.833,28.3333 193.5,29C 199.31,30.4763 204.644,32.643 209.5,35.5 Z" />
    </g>
    <g>
        <path style="opacity:1" fill="#e4fce9"
            d="M 153.5,38.5 C 172.699,36.9238 191.365,39.2571 209.5,45.5C 236.439,56.4356 256.772,74.7689 270.5,100.5C 267.5,101.167 264.5,101.833 261.5,102.5C 250.65,106.16 245.15,113.827 245,125.5C 239.681,128.311 236.515,132.644 235.5,138.5C 234.508,145.982 234.175,153.648 234.5,161.5C 233.5,161.5 232.5,161.5 231.5,161.5C 230.594,153.442 227.927,146.109 223.5,139.5C 221.683,134.54 218.85,130.207 215,126.5C 214.667,124.833 214.333,123.167 214,121.5C 211.876,120.378 210.043,118.878 208.5,117C 210.577,116.808 212.577,116.308 214.5,115.5C 213.167,113.833 211.833,112.167 210.5,110.5C 211.325,109.614 212.325,109.281 213.5,109.5C 213.5,108.5 213.5,107.5 213.5,106.5C 210.15,106.665 206.817,106.498 203.5,106C 203,105.5 202.5,105 202,104.5C 202.351,96.1828 202.351,87.8495 202,79.5C 201.357,75.8405 199.524,73.1738 196.5,71.5C 189.472,74.8637 184.472,80.1971 181.5,87.5C 174.162,88.2331 166.829,88.8998 159.5,89.5C 156.531,86.2546 154.031,82.588 152,78.5C 143.885,68.2154 138.552,69.5488 136,82.5C 135.203,88.7716 135.703,94.9383 137.5,101C 136.971,102.559 136.304,104.059 135.5,105.5C 131.893,106.489 128.226,106.823 124.5,106.5C 124.383,108.484 125.05,110.15 126.5,111.5C 123.61,112.837 122.943,114.837 124.5,117.5C 122.885,120.26 121.719,123.26 121,126.5C 119.414,127.376 117.914,128.376 116.5,129.5C 116.118,125.084 115.118,121.084 113.5,117.5C 112.42,112.911 109.92,109.244 106,106.5C 106.849,96.8608 103.016,89.8608 94.5,85.5C 93.9278,83.0829 92.9278,80.9162 91.5,79C 88.8333,78.6667 86.1667,78.3333 83.5,78C 92.6249,66.7786 103.625,57.9452 116.5,51.5C 128.305,45.3445 140.639,41.0111 153.5,38.5 Z" />
    </g>
    <g>
        <path style="opacity:1" fill="#2a1606"
            d="M 221.5,82.5 C 226.001,82.0046 229.835,83.3379 233,86.5C 240.567,81.6973 245.401,83.6973 247.5,92.5C 237.828,92.6665 228.161,92.4998 218.5,92C 217.424,90.2739 217.257,88.4406 218,86.5C 219.376,85.2949 220.542,83.9616 221.5,82.5 Z" />
    </g>
    <g>
        <path style="opacity:1" fill="#969581"
            d="M 270.5,100.5 C 271.043,100.56 271.376,100.893 271.5,101.5C 268.232,102.487 264.898,102.82 261.5,102.5C 264.5,101.833 267.5,101.167 270.5,100.5 Z" />
    </g>
    <g>
        <path style="opacity:1" fill="#2c2107"
            d="M 63.5,91.5 C 63.6674,96.9523 61.5007,101.619 57,105.5C 53.7806,112.722 51.6139,120.388 50.5,128.5C 50.7028,130.208 51.5362,131.541 53,132.5C 55.179,131.604 57.0124,130.271 58.5,128.5C 60.1151,129.154 61.7818,129.654 63.5,130C 65.8053,133.769 67.8053,137.603 69.5,141.5C 71.3084,141.491 72.9751,141.991 74.5,143C 77.5271,146.694 80.8604,150.027 84.5,153C 83.944,153.383 83.6107,153.883 83.5,154.5C 80.2804,151.117 76.6138,148.284 72.5,146C 68.5883,141.923 65.255,137.423 62.5,132.5C 61.6667,132.167 60.8333,131.833 60,131.5C 49.4027,134.73 44.4027,141.73 45,152.5C 45.926,154.692 47.0927,156.692 48.5,158.5C 45.9315,158.406 44.4315,157.072 44,154.5C 42.5239,149.153 42.0239,143.82 42.5,138.5C 41.3892,140.552 39.7225,141.886 37.5,142.5C 40.1319,136.936 43.9652,132.269 49,128.5C 51.4149,115.066 56.2482,102.732 63.5,91.5 Z" />
    </g>
    <g>
        <path style="opacity:1" fill="#2f1a03"
            d="M 116.5,51.5 C 103.625,57.9452 92.6249,66.7786 83.5,78C 86.1667,78.3333 88.8333,78.6667 91.5,79C 92.9278,80.9162 93.9278,83.0829 94.5,85.5C 103.016,89.8608 106.849,96.8608 106,106.5C 109.92,109.244 112.42,112.911 113.5,117.5C 115.902,128.725 113.236,138.558 105.5,147C 102.395,148.868 99.0615,150.035 95.5,150.5C 95.995,161.536 95.995,172.536 95.5,183.5C 100.544,183.827 105.544,183.494 110.5,182.5C 106.215,173.523 105.382,164.19 108,154.5C 111.326,143.673 116.826,134.173 124.5,126C 123.446,124.612 123.28,123.112 124,121.5C 125.41,120.213 126.91,119.046 128.5,118C 127.207,117.51 125.873,117.343 124.5,117.5C 122.943,114.837 123.61,112.837 126.5,111.5C 125.05,110.15 124.383,108.484 124.5,106.5C 128.226,106.823 131.893,106.489 135.5,105.5C 136.304,104.059 136.971,102.559 137.5,101C 135.703,94.9383 135.203,88.7716 136,82.5C 138.552,69.5488 143.885,68.2154 152,78.5C 154.031,82.588 156.531,86.2546 159.5,89.5C 166.829,88.8998 174.162,88.2331 181.5,87.5C 184.472,80.1971 189.472,74.8637 196.5,71.5C 199.524,73.1738 201.357,75.8405 202,79.5C 202.351,87.8495 202.351,96.1828 202,104.5C 202.5,105 203,105.5 203.5,106C 206.817,106.498 210.15,106.665 213.5,106.5C 213.5,107.5 213.5,108.5 213.5,109.5C 212.325,109.281 211.325,109.614 210.5,110.5C 211.833,112.167 213.167,113.833 214.5,115.5C 212.577,116.308 210.577,116.808 208.5,117C 210.043,118.878 211.876,120.378 214,121.5C 214.333,123.167 214.667,124.833 215,126.5C 218.85,130.207 221.683,134.54 223.5,139.5C 223.892,142.146 223.892,144.646 223.5,147C 225.161,147.995 226.495,149.328 227.5,151C 228.461,154.803 229.294,158.636 230,162.5C 230.69,170.014 230.19,177.347 228.5,184.5C 234.494,184.151 240.328,184.818 246,186.5C 247.902,182.797 250.735,181.797 254.5,183.5C 260.632,184.557 266.632,184.557 272.5,183.5C 276.53,186.06 280.696,186.06 285,183.5C 287.405,184.274 289.905,184.774 292.5,185C 293.047,185.925 293.713,186.758 294.5,187.5C 296.983,183.834 299.65,183.667 302.5,187C 299.741,188.238 296.907,189.404 294,190.5C 293,190.167 292,189.833 291,189.5C 284.537,190.276 278.037,190.776 271.5,191C 194.999,191.167 118.666,191.667 42.5,192.5C 41.5416,192.953 40.7083,193.619 40,194.5C 39.1717,211.338 39.3384,228.005 40.5,244.5C 40.5569,245.609 40.8902,246.609 41.5,247.5C 40.1751,248.953 39.3418,248.619 39,246.5C 38.1747,227.926 38.3413,209.426 39.5,191C 36.9949,189.705 34.3283,189.539 31.5,190.5C 35.3877,184.12 41.0544,181.787 48.5,183.5C 48.666,178.156 48.4994,172.823 48,167.5C 37.8003,161.788 34.3003,153.455 37.5,142.5C 39.7225,141.886 41.3892,140.552 42.5,138.5C 42.0239,143.82 42.5239,149.153 44,154.5C 44.4315,157.072 45.9315,158.406 48.5,158.5C 50.2959,159.793 51.9625,161.293 53.5,163C 58.359,163.933 63.1924,164.766 68,165.5C 69.484,161.512 72.3174,159.846 76.5,160.5C 76.5,164.167 76.5,167.833 76.5,171.5C 76.5,175.5 76.5,179.5 76.5,183.5C 79.5,183.5 82.5,183.5 85.5,183.5C 85.5,179.5 85.5,175.5 85.5,171.5C 85.6658,166.821 85.4992,162.155 85,157.5C 84.7216,156.584 84.2216,155.918 83.5,155.5C 83.5,155.167 83.5,154.833 83.5,154.5C 83.6107,153.883 83.944,153.383 84.5,153C 80.8604,150.027 77.5271,146.694 74.5,143C 72.9751,141.991 71.3084,141.491 69.5,141.5C 67.8053,137.603 65.8053,133.769 63.5,130C 61.7818,129.654 60.1151,129.154 58.5,128.5C 57.0124,130.271 55.179,131.604 53,132.5C 51.5362,131.541 50.7028,130.208 50.5,128.5C 51.6139,120.388 53.7806,112.722 57,105.5C 61.5007,101.619 63.6674,96.9523 63.5,91.5C 75.0709,69.5422 92.0709,53.2088 114.5,42.5C 117.686,42.1046 120.686,41.1046 123.5,39.5C 127.968,38.6016 132.634,38.6016 137.5,39.5C 133.366,41.2665 129.199,42.9332 125,44.5C 124.667,44.1667 124.333,43.8333 124,43.5C 121.584,46.4107 119.084,49.0773 116.5,51.5 Z" />
    </g>
    <g>
        <path style="opacity:1" fill="#fbf8e4"
            d="M 160.5,127.5 C 191.537,126.689 208.87,141.856 212.5,173C 211.909,176.527 211.242,180.027 210.5,183.5C 183.592,183.828 156.759,183.495 130,182.5C 125.306,163.58 130.473,147.746 145.5,135C 150.35,132.007 155.35,129.507 160.5,127.5 Z" />
    </g>
    <g>
        <path style="opacity:1" fill="#f3eddf"
            d="M 145.5,102.5 C 154.778,101.376 158.278,105.376 156,114.5C 149.994,120.33 144.994,119.663 141,112.5C 140.616,108.272 142.116,104.939 145.5,102.5 Z" />
    </g>
    <g>
        <path style="opacity:1" fill="#f1ebdf"
            d="M 163.5,113.5 C 167.019,112.192 170.685,112.192 174.5,113.5C 170.921,117.413 167.254,117.413 163.5,113.5 Z" />
    </g>
    <g>
        <path style="opacity:1" fill="#f6f2e5"
            d="M 186.5,102.5 C 195.33,101.162 198.83,104.829 197,113.5C 194.928,118.143 191.428,119.643 186.5,118C 179.968,112.701 179.968,107.534 186.5,102.5 Z" />
    </g>
    <g>
        <path style="opacity:1" fill="#2b1d0f"
            d="M 146.5,105.5 C 152.803,105.924 154.469,108.757 151.5,114C 144.237,114.821 142.571,111.988 146.5,105.5 Z" />
    </g>
    <g>
        <path style="opacity:1" fill="#311f11"
            d="M 188.5,105.5 C 191.699,105.696 193.699,107.363 194.5,110.5C 191.444,117.143 188.444,117.143 185.5,110.5C 185.757,108.308 186.757,106.641 188.5,105.5 Z" />
    </g>
    <g>
        <path style="opacity:1" fill="#2f2515"
            d="M 167.5,134.5 C 173.732,133.761 176.732,136.428 176.5,142.5C 173.972,141.989 171.472,141.322 169,140.5C 166.528,141.322 164.028,141.989 161.5,142.5C 161.642,138.367 163.642,135.7 167.5,134.5 Z" />
    </g>
    <g>
        <path style="opacity:1" fill="#211708"
            d="M 183.5,143.5 C 189.59,142.137 194.09,144.137 197,149.5C 197.781,150.944 197.614,152.277 196.5,153.5C 191.552,148.243 185.885,147.243 179.5,150.5C 179.961,147.697 181.295,145.363 183.5,143.5 Z" />
    </g>
    <g>
        <path style="opacity:1" fill="#2c1e10"
            d="M 146.5,143.5 C 149.941,143.301 153.274,143.801 156.5,145C 158.576,146.884 158.91,149.051 157.5,151.5C 155.278,150.222 152.944,149.222 150.5,148.5C 147.129,150.232 143.796,151.899 140.5,153.5C 140.491,151.692 140.991,150.025 142,148.5C 143.707,146.963 145.207,145.296 146.5,143.5 Z" />
    </g>
    <g>
        <path style="opacity:1" fill="#83a344"
            d="M 83.5,154.5 C 83.5,154.833 83.5,155.167 83.5,155.5C 84.2216,155.918 84.7216,156.584 85,157.5C 85.4992,162.155 85.6658,166.821 85.5,171.5C 82.5,171.5 79.5,171.5 76.5,171.5C 76.5,167.833 76.5,164.167 76.5,160.5C 72.3174,159.846 69.484,161.512 68,165.5C 63.1924,164.766 58.359,163.933 53.5,163C 51.9625,161.293 50.2959,159.793 48.5,158.5C 47.0927,156.692 45.926,154.692 45,152.5C 44.4027,141.73 49.4027,134.73 60,131.5C 60.8333,131.833 61.6667,132.167 62.5,132.5C 65.255,137.423 68.5883,141.923 72.5,146C 76.6138,148.284 80.2804,151.117 83.5,154.5 Z" />
    </g>
    <g>
        <path style="opacity:1" fill="#82ab3e"
            d="M 83.5,155.5 C 83.5,160.167 83.5,164.833 83.5,169.5C 80.9442,169.868 78.9442,169.034 77.5,167C 80.4587,159.627 78.1254,156.96 70.5,159C 69.4388,162.334 67.1054,163.834 63.5,163.5C 59.9442,163.555 56.6109,162.722 53.5,161C 51.7441,157.785 51.5774,154.285 53,150.5C 54.6995,149.594 56.5328,149.261 58.5,149.5C 58.719,148.325 58.3857,147.325 57.5,146.5C 55.5878,148.156 53.5878,148.489 51.5,147.5C 52.4147,146.672 53.0814,145.672 53.5,144.5C 52.9569,143.136 52.7902,141.803 53,140.5C 55.3333,141.833 57.6667,141.833 60,140.5C 60.2649,138.837 59.7649,137.337 58.5,136C 58.8333,135.833 59.1667,135.667 59.5,135.5C 62.4732,136.81 64.8065,138.81 66.5,141.5C 67.0724,143.078 67.4057,144.578 67.5,146C 70.5782,146.087 72.9116,147.421 74.5,150C 71.9184,153.925 72.9184,155.091 77.5,153.5C 79.6931,153.719 81.6931,154.385 83.5,155.5 Z" />
    </g>
    <g>
        <path style="opacity:1" fill="#eeecdf"
            d="M 113.5,117.5 C 115.118,121.084 116.118,125.084 116.5,129.5C 117.914,128.376 119.414,127.376 121,126.5C 121.719,123.26 122.885,120.26 124.5,117.5C 125.873,117.343 127.207,117.51 128.5,118C 126.91,119.046 125.41,120.213 124,121.5C 123.28,123.112 123.446,124.612 124.5,126C 116.826,134.173 111.326,143.673 108,154.5C 105.382,164.19 106.215,173.523 110.5,182.5C 105.544,183.494 100.544,183.827 95.5,183.5C 95.995,172.536 95.995,161.536 95.5,150.5C 99.0615,150.035 102.395,148.868 105.5,147C 113.236,138.558 115.902,128.725 113.5,117.5 Z" />
    </g>
    <g>
        <path style="opacity:1" fill="#341f0d"
            d="M 165.5,152.5 C 173.891,151.003 178.558,154.336 179.5,162.5C 175.841,161.913 172.341,160.913 169,159.5C 165.929,159.784 163.095,160.784 160.5,162.5C 159.369,160.926 159.202,159.259 160,157.5C 161.73,155.598 163.563,153.931 165.5,152.5 Z" />
    </g>
    <g>
        <path style="opacity:1" fill="#31200a"
            d="M 100.5,154.5 C 101.5,154.5 102.5,154.5 103.5,154.5C 103.54,163.528 103.04,172.528 102,181.5C 101.385,179.884 100.385,178.551 99,177.5C 97.9816,169.667 98.4816,162 100.5,154.5 Z" />
    </g>
    <g>
        <path style="opacity:1" fill="#e3efd4"
            d="M 76.5,171.5 C 79.5,171.5 82.5,171.5 85.5,171.5C 85.5,175.5 85.5,179.5 85.5,183.5C 82.5,183.5 79.5,183.5 76.5,183.5C 76.5,179.5 76.5,175.5 76.5,171.5 Z" />
    </g>
    <g>
        <path style="opacity:1" fill="#edf2e2"
            d="M 59.5,172.5 C 62.5,172.5 65.5,172.5 68.5,172.5C 68.5,176.167 68.5,179.833 68.5,183.5C 65.1667,183.5 61.8333,183.5 58.5,183.5C 58.244,179.731 58.5773,176.064 59.5,172.5 Z" />
    </g>
    <g>
        <path style="opacity:1" fill="#dde3d0"
            d="M 235.5,138.5 C 235.279,147.866 235.613,157.199 236.5,166.5C 234.912,163.782 233.579,163.948 232.5,167C 233.57,171.724 233.57,176.224 232.5,180.5C 236.122,181.659 239.789,181.825 243.5,181C 244.679,178.204 244.679,175.371 243.5,172.5C 244.5,172.5 245.5,172.5 246.5,172.5C 246.5,176.167 246.5,179.833 246.5,183.5C 240.833,183.5 235.167,183.5 229.5,183.5C 231.242,176.316 231.909,168.983 231.5,161.5C 232.5,161.5 233.5,161.5 234.5,161.5C 234.175,153.648 234.508,145.982 235.5,138.5 Z" />
    </g>
    <g>
        <path style="opacity:1" fill="#351e0d"
            d="M 41.5,247.5 C 127.874,247.828 214.208,247.495 300.5,246.5C 302.173,229.623 303.173,212.456 303.5,195C 302.643,194.311 301.977,193.478 301.5,192.5C 303.191,190.744 305.191,190.244 307.5,191C 308.659,209.426 308.825,227.926 308,246.5C 306.872,248.345 306.372,250.345 306.5,252.5C 291,254.658 275.5,254.991 260,253.5C 256.901,254.455 253.734,255.289 250.5,256C 249.809,257.067 249.309,258.234 249,259.5C 247.434,258.939 246.101,259.606 245,261.5C 243.795,260.929 242.628,260.262 241.5,259.5C 242.025,258.808 242.692,258.308 243.5,258C 241.741,256.992 240.574,255.492 240,253.5C 239,253.833 238,254.167 237,254.5C 234.773,252.121 232.273,251.954 229.5,254C 186.507,255.356 143.507,255.689 100.5,255C 99.6667,254.167 98.8333,253.333 98,252.5C 95.9662,253.743 95.1329,255.243 95.5,257C 97.3937,258.079 97.727,259.413 96.5,261C 99.0352,261.928 100.035,263.762 99.5,266.5C 96.8598,265.552 94.1931,264.552 91.5,263.5C 89.0365,261.539 86.7032,259.372 84.5,257C 68.8333,256.667 53.1667,256.333 37.5,256C 35.3762,254.878 33.5429,253.378 32,251.5C 30.856,241.261 30.356,230.928 30.5,220.5C 30.5118,210.426 30.8451,200.426 31.5,190.5C 34.3283,189.539 36.9949,189.705 39.5,191C 38.3413,209.426 38.1747,227.926 39,246.5C 39.3418,248.619 40.1751,248.953 41.5,247.5 Z" />
    </g>
    <g>
        <path style="opacity:1" fill="#e8f8e9"
            d="M 220.5,193.5 C 244.5,193.5 268.5,193.5 292.5,193.5C 288.018,194.326 283.351,194.826 278.5,195C 277.458,198.253 274.792,199.919 270.5,200C 272.889,200.739 274.889,201.905 276.5,203.5C 278.117,204.038 279.784,204.371 281.5,204.5C 281.667,215.505 281.5,226.505 281,237.5C 280.417,239.002 279.584,240.335 278.5,241.5C 275.636,241.158 272.802,241.824 270,243.5C 269.667,243.167 269.333,242.833 269,242.5C 267.401,244.036 265.567,244.536 263.5,244C 264.98,241.45 264.313,239.617 261.5,238.5C 257.514,243.469 253.514,243.302 249.5,238C 250.535,236.493 250.368,234.993 249,233.5C 248.292,234.381 247.458,235.047 246.5,235.5C 246.5,232.167 246.5,228.833 246.5,225.5C 247.5,225.5 248.5,225.5 249.5,225.5C 250.5,230.167 251.5,234.833 252.5,239.5C 254.857,239.663 257.19,239.497 259.5,239C 257.68,234.383 256.013,229.716 254.5,225C 256.487,223.681 257.654,221.848 258,219.5C 260.929,204.93 255.096,199.263 240.5,202.5C 240.5,214.833 240.5,227.167 240.5,239.5C 242.5,239.5 244.5,239.5 246.5,239.5C 247.404,240.209 247.737,241.209 247.5,242.5C 243.927,242.959 240.927,241.959 238.5,239.5C 238.003,241.216 237.669,242.883 237.5,244.5C 236.108,243.395 234.941,242.061 234,240.5C 232.956,241.623 232.29,242.956 232,244.5C 226.121,244.766 220.121,244.433 214,243.5C 213.833,243.833 213.667,244.167 213.5,244.5C 219,244.833 224.5,245.167 230,245.5C 252.837,245.472 275.67,245.472 298.5,245.5C 299.223,228.125 299.223,210.791 298.5,193.5C 299.496,193.414 300.329,193.748 301,194.5C 301.818,211.907 301.652,229.24 300.5,246.5C 214.208,247.495 127.874,247.828 41.5,247.5C 40.8902,246.609 40.5569,245.609 40.5,244.5C 40.1676,227.755 40.5009,211.755 41.5,196.5C 41.3334,212.17 41.5001,227.837 42,243.5C 42.8333,244.333 43.6667,245.167 44.5,246C 69.5322,246.889 94.5322,246.389 119.5,244.5C 126.1,246.258 127.434,244.591 123.5,239.5C 125.5,239.5 127.5,239.5 129.5,239.5C 129.5,234.833 129.5,230.167 129.5,225.5C 131.5,225.5 133.5,225.5 135.5,225.5C 135.5,229.833 135.5,234.167 135.5,238.5C 137.265,239.461 139.265,239.795 141.5,239.5C 141.829,226.989 141.495,214.655 140.5,202.5C 139.167,202.5 137.833,202.5 136.5,202.5C 138.56,201.189 140.726,201.189 143,202.5C 143.333,205.167 143.667,207.833 144,210.5C 144.75,211.126 145.584,211.626 146.5,212C 145.39,214.737 145.223,217.571 146,220.5C 146.333,220.167 146.667,219.833 147,219.5C 148.564,221.665 148.397,223.332 146.5,224.5C 145.345,227.446 145.179,230.446 146,233.5C 146.333,231.833 146.667,230.167 147,228.5C 149,232.5 149,236.5 147,240.5C 146.804,238.714 145.971,237.381 144.5,236.5C 143.396,237.631 143.729,238.465 145.5,239C 143.406,242.582 140.406,243.415 136.5,241.5C 135.41,242.391 135.41,243.391 136.5,244.5C 142.629,245.967 148.629,245.633 154.5,243.5C 157.357,238.28 158.69,238.947 158.5,245.5C 160.681,245.716 162.347,244.883 163.5,243C 162.833,242.333 162.167,241.667 161.5,241C 161.549,231.043 161.549,220.876 161.5,210.5C 154.295,211.2 152.628,208.533 156.5,202.5C 156.5,204.5 156.5,206.5 156.5,208.5C 158.5,208.5 160.5,208.5 162.5,208.5C 162.5,218.5 162.5,228.5 162.5,238.5C 164.5,238.5 166.5,238.5 168.5,238.5C 168.5,228.167 168.5,217.833 168.5,207.5C 170.167,207.5 171.833,207.5 173.5,207.5C 174.451,206.081 174.784,204.415 174.5,202.5C 168.833,202.5 163.167,202.5 157.5,202.5C 158.841,200.88 160.674,199.88 163,199.5C 169.788,200.202 176.288,201.202 182.5,202.5C 180.897,203.596 179.397,204.93 178,206.5C 177.333,215.833 177.333,225.167 178,234.5C 179.399,238.238 182.066,239.904 186,239.5C 189.545,239.961 192.212,238.628 194,235.5C 194.667,225.833 194.667,216.167 194,206.5C 191.303,203.13 187.803,201.796 183.5,202.5C 187.771,200.871 191.771,201.537 195.5,204.5C 196.183,204.137 196.85,203.804 197.5,203.5C 197.5,205.167 197.5,206.833 197.5,208.5C 199.5,208.5 201.5,208.5 203.5,208.5C 203.5,218.5 203.5,228.5 203.5,238.5C 205.265,239.461 207.265,239.795 209.5,239.5C 209.5,229.167 209.5,218.833 209.5,208.5C 211.415,208.784 213.081,208.451 214.5,207.5C 215.451,206.081 215.784,204.415 215.5,202.5C 209.833,202.5 204.167,202.5 198.5,202.5C 197.472,201.926 196.472,201.593 195.5,201.5C 196.002,200.284 196.335,199.117 196.5,198C 196.833,197.833 197.167,197.667 197.5,197.5C 198.251,198.376 198.751,199.376 199,200.5C 200.011,199.663 201.178,199.33 202.5,199.5C 202.966,197.799 202.966,196.299 202.5,195C 208.681,194.828 214.681,194.328 220.5,193.5 Z" />
    </g>
    <g>
        <path style="opacity:1" fill="#311d10"
            d="M 246.5,235.5 C 246.5,236.833 246.5,238.167 246.5,239.5C 244.5,239.5 242.5,239.5 240.5,239.5C 240.5,227.167 240.5,214.833 240.5,202.5C 255.096,199.263 260.929,204.93 258,219.5C 257.654,221.848 256.487,223.681 254.5,225C 256.013,229.716 257.68,234.383 259.5,239C 257.19,239.497 254.857,239.663 252.5,239.5C 251.5,234.833 250.5,230.167 249.5,225.5C 248.5,225.5 247.5,225.5 246.5,225.5C 246.5,228.833 246.5,232.167 246.5,235.5 Z" />
    </g>
    <g>
        <path style="opacity:1" fill="#2a1609"
            d="M 223.5,202.5 C 228.635,201.426 232.468,203.093 235,207.5C 235.667,216.5 235.667,225.5 235,234.5C 234.167,236.667 232.667,238.167 230.5,239C 226.091,240.262 222.257,239.428 219,236.5C 218.333,226.5 218.333,216.5 219,206.5C 220.25,204.807 221.75,203.473 223.5,202.5 Z" />
    </g>
    <g>
        <path style="opacity:1" fill="#281304"
            d="M 214.5,207.5 C 213.081,208.451 211.415,208.784 209.5,208.5C 208.506,218.319 208.173,228.319 208.5,238.5C 206.833,238.5 205.167,238.5 203.5,238.5C 203.5,228.5 203.5,218.5 203.5,208.5C 202.081,207.549 200.415,207.216 198.5,207.5C 198.5,206.167 198.5,204.833 198.5,203.5C 203.833,203.5 209.167,203.5 214.5,203.5C 214.5,204.833 214.5,206.167 214.5,207.5 Z" />
    </g>
    <g>
        <path style="opacity:1" fill="#5c5546"
            d="M 209.5,208.5 C 209.5,218.833 209.5,229.167 209.5,239.5C 207.265,239.795 205.265,239.461 203.5,238.5C 205.167,238.5 206.833,238.5 208.5,238.5C 208.173,228.319 208.506,218.319 209.5,208.5 Z" />
    </g>
    <g>
        <path style="opacity:1" fill="#eaf0e4"
            d="M 224.5,208.5 C 226.167,208.5 227.833,208.5 229.5,208.5C 229.666,216.507 229.5,224.507 229,232.5C 227.333,233.833 225.667,233.833 224,232.5C 223.2,224.421 223.367,216.421 224.5,208.5 Z" />
    </g>
    <g>
        <path style="opacity:1" fill="#f3f8eb"
            d="M 246.5,208.5 C 251.492,207.492 253.492,209.492 252.5,214.5C 253.492,219.508 251.492,221.508 246.5,220.5C 246.5,216.5 246.5,212.5 246.5,208.5 Z" />
    </g>
    <g>
        <path style="opacity:1" fill="#342011"
            d="M 182.5,202.5 C 182.833,202.5 183.167,202.5 183.5,202.5C 187.803,201.796 191.303,203.13 194,206.5C 194.667,216.167 194.667,225.833 194,235.5C 192.212,238.628 189.545,239.961 186,239.5C 182.066,239.904 179.399,238.238 178,234.5C 177.333,225.167 177.333,215.833 178,206.5C 179.397,204.93 180.897,203.596 182.5,202.5 Z" />
    </g>
    <g>
        <path style="opacity:1" fill="#f1fbea"
            d="M 183.5,208.5 C 185.167,208.5 186.833,208.5 188.5,208.5C 188.5,216.833 188.5,225.167 188.5,233.5C 186.833,233.5 185.167,233.5 183.5,233.5C 183.5,225.167 183.5,216.833 183.5,208.5 Z" />
    </g>
    <g>
        <path style="opacity:1" fill="#2e180c"
            d="M 276.5,203.5 C 277.122,204.627 277.955,205.627 279,206.5C 279.667,216.5 279.667,226.5 279,236.5C 274,241.833 269,241.833 264,236.5C 262.413,226.908 262.08,217.242 263,207.5C 263.833,205.333 265.333,203.833 267.5,203C 270.592,202.264 273.592,202.431 276.5,203.5 Z" />
    </g>
    <g>
        <path style="opacity:1" fill="#dfeddf"
            d="M 269.5,208.5 C 271.144,208.286 272.644,208.62 274,209.5C 274.667,217.167 274.667,224.833 274,232.5C 272.333,235.167 270.667,235.167 269,232.5C 268.2,224.421 268.367,216.421 269.5,208.5 Z" />
    </g>
    <g>
        <path style="opacity:1" fill="#2d1807"
            d="M 173.5,207.5 C 171.833,207.5 170.167,207.5 168.5,207.5C 168.5,217.833 168.5,228.167 168.5,238.5C 166.5,238.5 164.5,238.5 162.5,238.5C 162.5,228.5 162.5,218.5 162.5,208.5C 161.081,207.549 159.415,207.216 157.5,207.5C 157.5,206.167 157.5,204.833 157.5,203.5C 162.833,203.5 168.167,203.5 173.5,203.5C 173.5,204.833 173.5,206.167 173.5,207.5 Z" />
    </g>
    <g>
        <path style="opacity:1" fill="#e4feec"
            d="M 292.5,193.5 C 294.5,193.5 296.5,193.5 298.5,193.5C 299.223,210.791 299.223,228.125 298.5,245.5C 275.67,245.472 252.837,245.472 230,245.5C 224.5,245.167 219,244.833 213.5,244.5C 213.667,244.167 213.833,243.833 214,243.5C 220.121,244.433 226.121,244.766 232,244.5C 232.29,242.956 232.956,241.623 234,240.5C 234.941,242.061 236.108,243.395 237.5,244.5C 237.669,242.883 238.003,241.216 238.5,239.5C 240.927,241.959 243.927,242.959 247.5,242.5C 247.737,241.209 247.404,240.209 246.5,239.5C 246.5,238.167 246.5,236.833 246.5,235.5C 247.458,235.047 248.292,234.381 249,233.5C 250.368,234.993 250.535,236.493 249.5,238C 253.514,243.302 257.514,243.469 261.5,238.5C 264.313,239.617 264.98,241.45 263.5,244C 265.567,244.536 267.401,244.036 269,242.5C 269.333,242.833 269.667,243.167 270,243.5C 272.802,241.824 275.636,241.158 278.5,241.5C 279.584,240.335 280.417,239.002 281,237.5C 281.5,226.505 281.667,215.505 281.5,204.5C 279.784,204.371 278.117,204.038 276.5,203.5C 274.889,201.905 272.889,200.739 270.5,200C 274.792,199.919 277.458,198.253 278.5,195C 283.351,194.826 288.018,194.326 292.5,193.5 Z" />
    </g>
    <g>
        <path style="opacity:1" fill="#544e3c"
            d="M 198.5,202.5 C 204.167,202.5 209.833,202.5 215.5,202.5C 215.784,204.415 215.451,206.081 214.5,207.5C 214.5,206.167 214.5,204.833 214.5,203.5C 209.167,203.5 203.833,203.5 198.5,203.5C 198.5,204.833 198.5,206.167 198.5,207.5C 200.415,207.216 202.081,207.549 203.5,208.5C 201.5,208.5 199.5,208.5 197.5,208.5C 197.5,206.833 197.5,205.167 197.5,203.5C 197.5,202.833 197.833,202.5 198.5,202.5 Z" />
    </g>
    <g>
        <path style="opacity:1" fill="#47402e"
            d="M 156.5,202.5 C 156.833,202.5 157.167,202.5 157.5,202.5C 163.167,202.5 168.833,202.5 174.5,202.5C 174.784,204.415 174.451,206.081 173.5,207.5C 173.5,206.167 173.5,204.833 173.5,203.5C 168.167,203.5 162.833,203.5 157.5,203.5C 157.5,204.833 157.5,206.167 157.5,207.5C 159.415,207.216 161.081,207.549 162.5,208.5C 160.5,208.5 158.5,208.5 156.5,208.5C 156.5,206.5 156.5,204.5 156.5,202.5 Z" />
    </g>
    <g>
        <path style="opacity:1" fill="#e5fbeb"
            d="M 220.5,193.5 C 214.681,194.328 208.681,194.828 202.5,195C 202.966,196.299 202.966,197.799 202.5,199.5C 201.178,199.33 200.011,199.663 199,200.5C 198.751,199.376 198.251,198.376 197.5,197.5C 197.167,197.667 196.833,197.833 196.5,198C 196.335,199.117 196.002,200.284 195.5,201.5C 196.472,201.593 197.472,201.926 198.5,202.5C 197.833,202.5 197.5,202.833 197.5,203.5C 196.85,203.804 196.183,204.137 195.5,204.5C 191.771,201.537 187.771,200.871 183.5,202.5C 183.167,202.5 182.833,202.5 182.5,202.5C 176.288,201.202 169.788,200.202 163,199.5C 160.674,199.88 158.841,200.88 157.5,202.5C 157.167,202.5 156.833,202.5 156.5,202.5C 152.628,208.533 154.295,211.2 161.5,210.5C 161.549,220.876 161.549,231.043 161.5,241C 162.167,241.667 162.833,242.333 163.5,243C 162.347,244.883 160.681,245.716 158.5,245.5C 158.69,238.947 157.357,238.28 154.5,243.5C 148.629,245.633 142.629,245.967 136.5,244.5C 135.41,243.391 135.41,242.391 136.5,241.5C 140.406,243.415 143.406,242.582 145.5,239C 143.729,238.465 143.396,237.631 144.5,236.5C 145.971,237.381 146.804,238.714 147,240.5C 149,236.5 149,232.5 147,228.5C 146.667,230.167 146.333,231.833 146,233.5C 145.179,230.446 145.345,227.446 146.5,224.5C 148.397,223.332 148.564,221.665 147,219.5C 146.667,219.833 146.333,220.167 146,220.5C 145.223,217.571 145.39,214.737 146.5,212C 145.584,211.626 144.75,211.126 144,210.5C 143.667,207.833 143.333,205.167 143,202.5C 140.726,201.189 138.56,201.189 136.5,202.5C 136.167,202.5 135.833,202.5 135.5,202.5C 134.511,207.975 134.178,213.642 134.5,219.5C 132.833,219.5 131.167,219.5 129.5,219.5C 129.5,213.833 129.5,208.167 129.5,202.5C 127.5,202.5 125.5,202.5 123.5,202.5C 123.167,202.5 122.833,202.5 122.5,202.5C 122.565,202.062 122.399,201.728 122,201.5C 121.196,202.804 120.029,203.471 118.5,203.5C 112.309,199.789 106.309,199.789 100.5,203.5C 94.54,201.302 88.54,200.969 82.5,202.5C 81.5048,214.655 81.1714,226.989 81.5,239.5C 86.8333,239.5 92.1667,239.5 97.5,239.5C 97.7845,237.585 97.4511,235.919 96.5,234.5C 93.7131,233.523 90.7131,233.19 87.5,233.5C 87.5,230.167 87.5,226.833 87.5,223.5C 90.1667,223.5 92.8333,223.5 95.5,223.5C 95.5,222.167 95.5,220.833 95.5,219.5C 92.9407,219.802 90.6074,219.468 88.5,218.5C 88.5,216.833 88.5,215.167 88.5,213.5C 89.2216,213.918 89.7216,214.584 90,215.5C 91.3333,214.167 92.6667,214.167 94,215.5C 94.5,215 95,214.5 95.5,214C 93.9411,213.02 92.2744,212.187 90.5,211.5C 92.2844,210.394 94.1178,210.394 96,211.5C 97.7705,213.55 99.1038,215.884 100,218.5C 100.179,214.975 100.679,211.641 101.5,208.5C 101.334,217.839 101.5,227.173 102,236.5C 105.338,239.318 109.171,240.151 113.5,239C 115.35,238.31 116.684,237.144 117.5,235.5C 118.75,235.423 119.583,234.756 120,233.5C 121.019,235.502 121.852,237.502 122.5,239.5C 122.833,239.5 123.167,239.5 123.5,239.5C 127.434,244.591 126.1,246.258 119.5,244.5C 94.5322,246.389 69.5322,246.889 44.5,246C 43.6667,245.167 42.8333,244.333 42,243.5C 41.5001,227.837 41.3334,212.17 41.5,196.5C 42.2674,195.828 42.9341,194.995 43.5,194C 102.499,193.5 161.499,193.333 220.5,193.5 Z" />
    </g>
    <g>
        <path style="opacity:1" fill="#2e1d0f"
            d="M 117.5,235.5 C 116.684,237.144 115.35,238.31 113.5,239C 109.171,240.151 105.338,239.318 102,236.5C 101.5,227.173 101.334,217.839 101.5,208.5C 101.393,206.097 102.393,204.264 104.5,203C 114.953,200.617 119.619,204.784 118.5,215.5C 116.143,215.663 113.81,215.497 111.5,215C 112.769,212.861 112.769,210.695 111.5,208.5C 110.28,207.289 109.113,207.289 108,208.5C 107.333,216.833 107.333,225.167 108,233.5C 109.587,234.727 110.921,234.394 112,232.5C 112.494,230.866 112.66,229.199 112.5,227.5C 114.167,227.5 115.833,227.5 117.5,227.5C 117.5,230.167 117.5,232.833 117.5,235.5 Z" />
    </g>
    <g>
        <path style="opacity:1" fill="#5d5541"
            d="M 140.5,202.5 C 141.495,214.655 141.829,226.989 141.5,239.5C 139.265,239.795 137.265,239.461 135.5,238.5C 137.167,238.5 138.833,238.5 140.5,238.5C 140.5,226.5 140.5,214.5 140.5,202.5 Z" />
    </g>
    <g>
        <path style="opacity:1" fill="#2d1708"
            d="M 82.5,202.5 C 87.2137,202.173 91.8804,202.507 96.5,203.5C 97.2458,204.736 97.5792,206.07 97.5,207.5C 94.1667,207.5 90.8333,207.5 87.5,207.5C 87.185,211.371 87.5184,215.038 88.5,218.5C 90.6074,219.468 92.9407,219.802 95.5,219.5C 95.5,220.833 95.5,222.167 95.5,223.5C 92.8333,223.5 90.1667,223.5 87.5,223.5C 87.5,226.833 87.5,230.167 87.5,233.5C 90.7131,233.19 93.7131,233.523 96.5,234.5C 96.5,235.833 96.5,237.167 96.5,238.5C 91.8333,238.5 87.1667,238.5 82.5,238.5C 82.5,226.5 82.5,214.5 82.5,202.5 Z" />
    </g>
    <g>
        <path style="opacity:1" fill="#321e0b"
            d="M 123.5,202.5 C 125.5,202.5 127.5,202.5 129.5,202.5C 129.5,208.167 129.5,213.833 129.5,219.5C 131.265,220.461 133.265,220.795 135.5,220.5C 135.5,214.5 135.5,208.5 135.5,202.5C 135.833,202.5 136.167,202.5 136.5,202.5C 137.833,202.5 139.167,202.5 140.5,202.5C 140.5,214.5 140.5,226.5 140.5,238.5C 138.833,238.5 137.167,238.5 135.5,238.5C 135.5,234.167 135.5,229.833 135.5,225.5C 133.5,225.5 131.5,225.5 129.5,225.5C 128.515,229.634 128.182,233.968 128.5,238.5C 126.833,238.5 125.167,238.5 123.5,238.5C 123.5,226.5 123.5,214.5 123.5,202.5 Z" />
    </g>
    <g>
        <path style="opacity:1" fill="#7e7668"
            d="M 61.5,207.5 C 63.5,207.5 65.5,207.5 67.5,207.5C 67.5,217.833 67.5,228.167 67.5,238.5C 69.1667,238.5 70.8333,238.5 72.5,238.5C 70.7354,239.461 68.7354,239.795 66.5,239.5C 66.5,229.167 66.5,218.833 66.5,208.5C 64.5853,208.784 62.9187,208.451 61.5,207.5 Z" />
    </g>
    <g>
        <path style="opacity:1" fill="#686754"
            d="M 82.5,202.5 C 82.5,214.5 82.5,226.5 82.5,238.5C 87.1667,238.5 91.8333,238.5 96.5,238.5C 96.5,237.167 96.5,235.833 96.5,234.5C 97.4511,235.919 97.7845,237.585 97.5,239.5C 92.1667,239.5 86.8333,239.5 81.5,239.5C 81.1714,226.989 81.5048,214.655 82.5,202.5 Z" />
    </g>
    <g>
        <path style="opacity:1" fill="#eef7ed"
            d="M 122.5,202.5 C 122.5,214.833 122.5,227.167 122.5,239.5C 121.852,237.502 121.019,235.502 120,233.5C 119.583,234.756 118.75,235.423 117.5,235.5C 117.5,232.833 117.5,230.167 117.5,227.5C 115.833,227.5 114.167,227.5 112.5,227.5C 112.66,229.199 112.494,230.866 112,232.5C 110.921,234.394 109.587,234.727 108,233.5C 107.333,225.167 107.333,216.833 108,208.5C 109.113,207.289 110.28,207.289 111.5,208.5C 112.769,210.695 112.769,212.861 111.5,215C 113.81,215.497 116.143,215.663 118.5,215.5C 119.619,204.784 114.953,200.617 104.5,203C 102.393,204.264 101.393,206.097 101.5,208.5C 100.679,211.641 100.179,214.975 100,218.5C 99.1038,215.884 97.7705,213.55 96,211.5C 94.1178,210.394 92.2844,210.394 90.5,211.5C 92.2744,212.187 93.9411,213.02 95.5,214C 95,214.5 94.5,215 94,215.5C 92.6667,214.167 91.3333,214.167 90,215.5C 89.7216,214.584 89.2216,213.918 88.5,213.5C 88.5,211.833 88.5,210.167 88.5,208.5C 91.7131,208.81 94.7131,208.477 97.5,207.5C 97.5792,206.07 97.2458,204.736 96.5,203.5C 91.8804,202.507 87.2137,202.173 82.5,202.5C 88.54,200.969 94.54,201.302 100.5,203.5C 106.309,199.789 112.309,199.789 118.5,203.5C 120.029,203.471 121.196,202.804 122,201.5C 122.399,201.728 122.565,202.062 122.5,202.5 Z" />
    </g>
    <g>
        <path style="opacity:1" fill="#a09a8b"
            d="M 97.5,207.5 C 94.7131,208.477 91.7131,208.81 88.5,208.5C 88.5,210.167 88.5,211.833 88.5,213.5C 88.5,215.167 88.5,216.833 88.5,218.5C 87.5184,215.038 87.185,211.371 87.5,207.5C 90.8333,207.5 94.1667,207.5 97.5,207.5 Z" />
    </g>
    <g>
        <path style="opacity:1" fill="#b9b5a1"
            d="M 135.5,202.5 C 135.5,208.5 135.5,214.5 135.5,220.5C 133.265,220.795 131.265,220.461 129.5,219.5C 131.167,219.5 132.833,219.5 134.5,219.5C 134.178,213.642 134.511,207.975 135.5,202.5 Z" />
    </g>
    <g>
        <path style="opacity:1" fill="#898574"
            d="M 122.5,202.5 C 122.833,202.5 123.167,202.5 123.5,202.5C 123.5,214.5 123.5,226.5 123.5,238.5C 125.167,238.5 126.833,238.5 128.5,238.5C 128.182,233.968 128.515,229.634 129.5,225.5C 129.5,230.167 129.5,234.833 129.5,239.5C 127.5,239.5 125.5,239.5 123.5,239.5C 123.167,239.5 122.833,239.5 122.5,239.5C 122.5,227.167 122.5,214.833 122.5,202.5 Z" />
    </g>
    <g>
        <path style="opacity:1" fill="#2d1303"
            d="M 72.5,238.5 C 70.8333,238.5 69.1667,238.5 67.5,238.5C 67.5,228.167 67.5,217.833 67.5,207.5C 65.5,207.5 63.5,207.5 61.5,207.5C 61.5,205.833 61.5,204.167 61.5,202.5C 67.1667,202.5 72.8333,202.5 78.5,202.5C 78.5,204.167 78.5,205.833 78.5,207.5C 76.5,207.5 74.5,207.5 72.5,207.5C 72.5,217.833 72.5,228.167 72.5,238.5 Z" />
    </g>
    <g>
        <path style="opacity:1" fill="#d9e3ce"
            d="M 42.5,192.5 C 128.002,192.167 213.335,192.501 298.5,193.5C 296.5,193.5 294.5,193.5 292.5,193.5C 268.5,193.5 244.5,193.5 220.5,193.5C 161.499,193.333 102.499,193.5 43.5,194C 42.9341,194.995 42.2674,195.828 41.5,196.5C 40.5009,211.755 40.1676,227.755 40.5,244.5C 39.3384,228.005 39.1717,211.338 40,194.5C 40.7083,193.619 41.5416,192.953 42.5,192.5 Z" />
    </g>
    <g>
        <path style="opacity:1" fill="#2f1d09"
            d="M 209.5,35.5 C 237.726,46.382 259.893,64.7154 276,90.5C 281.155,102.143 286.822,113.477 293,124.5C 293.51,132.37 296.177,139.37 301,145.5C 303.145,155.542 299.645,162.876 290.5,167.5C 289.505,172.792 289.172,178.125 289.5,183.5C 295.434,182.889 301.1,183.722 306.5,186C 307.667,187.833 308.833,189.667 310,191.5C 310.667,210.5 310.667,229.5 310,248.5C 308.833,252.333 306.333,254.833 302.5,256C 286.156,256.167 269.823,256.667 253.5,257.5C 220.424,289.023 181.424,299.523 136.5,289C 119.358,283.968 104.358,275.468 91.5,263.5C 94.1931,264.552 96.8598,265.552 99.5,266.5C 100.035,263.762 99.0352,261.928 96.5,261C 97.727,259.413 97.3937,258.079 95.5,257C 95.1329,255.243 95.9662,253.743 98,252.5C 98.8333,253.333 99.6667,254.167 100.5,255C 143.507,255.689 186.507,255.356 229.5,254C 232.273,251.954 234.773,252.121 237,254.5C 238,254.167 239,253.833 240,253.5C 240.574,255.492 241.741,256.992 243.5,258C 242.692,258.308 242.025,258.808 241.5,259.5C 242.628,260.262 243.795,260.929 245,261.5C 246.101,259.606 247.434,258.939 249,259.5C 249.309,258.234 249.809,257.067 250.5,256C 253.734,255.289 256.901,254.455 260,253.5C 275.5,254.991 291,254.658 306.5,252.5C 306.372,250.345 306.872,248.345 308,246.5C 308.825,227.926 308.659,209.426 307.5,191C 305.191,190.244 303.191,190.744 301.5,192.5C 301.977,193.478 302.643,194.311 303.5,195C 303.173,212.456 302.173,229.623 300.5,246.5C 301.652,229.24 301.818,211.907 301,194.5C 300.329,193.748 299.496,193.414 298.5,193.5C 213.335,192.501 128.002,192.167 42.5,192.5C 118.666,191.667 194.999,191.167 271.5,191C 278.037,190.776 284.537,190.276 291,189.5C 292,189.833 293,190.167 294,190.5C 296.907,189.404 299.741,188.238 302.5,187C 299.65,183.667 296.983,183.834 294.5,187.5C 293.713,186.758 293.047,185.925 292.5,185C 289.905,184.774 287.405,184.274 285,183.5C 280.696,186.06 276.53,186.06 272.5,183.5C 266.632,184.557 260.632,184.557 254.5,183.5C 250.735,181.797 247.902,182.797 246,186.5C 240.328,184.818 234.494,184.151 228.5,184.5C 230.19,177.347 230.69,170.014 230,162.5C 229.294,158.636 228.461,154.803 227.5,151C 226.495,149.328 225.161,147.995 223.5,147C 223.892,144.646 223.892,142.146 223.5,139.5C 227.927,146.109 230.594,153.442 231.5,161.5C 231.909,168.983 231.242,176.316 229.5,183.5C 235.167,183.5 240.833,183.5 246.5,183.5C 246.5,179.833 246.5,176.167 246.5,172.5C 245.5,172.5 244.5,172.5 243.5,172.5C 240.568,171.2 238.234,169.2 236.5,166.5C 235.613,157.199 235.279,147.866 235.5,138.5C 236.515,132.644 239.681,128.311 245,125.5C 245.15,113.827 250.65,106.16 261.5,102.5C 264.898,102.82 268.232,102.487 271.5,101.5C 271.376,100.893 271.043,100.56 270.5,100.5C 256.772,74.7689 236.439,56.4356 209.5,45.5C 211.308,45.5086 212.975,45.0086 214.5,44C 210.377,41.3776 206.044,38.3776 201.5,35C 182.864,31.1875 164.197,30.5209 145.5,33C 144.366,34.016 144.699,34.6827 146.5,35C 143.832,35.567 141.166,36.067 138.5,36.5C 138.5,37.5 138.5,38.5 138.5,39.5C 143.518,39.3867 148.518,39.0534 153.5,38.5C 140.639,41.0111 128.305,45.3445 116.5,51.5C 119.084,49.0773 121.584,46.4107 124,43.5C 124.333,43.8333 124.667,44.1667 125,44.5C 129.199,42.9332 133.366,41.2665 137.5,39.5C 132.634,38.6016 127.968,38.6016 123.5,39.5C 120.686,41.1046 117.686,42.1046 114.5,42.5C 116.703,40.8998 119.036,39.5665 121.5,38.5C 150.496,27.7169 179.829,26.7169 209.5,35.5 Z" />
    </g>
    <g>
        <path style="opacity:1" fill="#e7fae7"
            d="M 236.5,260.5 C 227.001,268.251 216.334,273.918 204.5,277.5C 189.273,281.467 173.94,282.467 158.5,280.5C 159.665,279.416 160.998,278.583 162.5,278C 162.043,277.586 161.709,277.086 161.5,276.5C 162.689,275.571 164.022,275.238 165.5,275.5C 170.335,277.248 173.335,275.581 174.5,270.5C 173.701,266.093 171.034,264.093 166.5,264.5C 164.801,264.66 163.134,264.494 161.5,264C 162.821,262.455 162.488,261.289 160.5,260.5C 158.561,262.618 156.394,262.951 154,261.5C 149.352,263.108 144.519,263.942 139.5,264C 137.167,266.167 134.833,268.333 132.5,270.5C 133.262,270.911 134.262,271.077 135.5,271C 136.781,273.403 138.614,275.237 141,276.5C 141.167,276.833 141.333,277.167 141.5,277.5C 139.955,278.452 138.288,278.785 136.5,278.5C 122.509,274.675 110.176,268.008 99.5,258.5C 144.997,257.501 190.664,257.168 236.5,257.5C 236.5,258.5 236.5,259.5 236.5,260.5 Z" />
    </g>
    <g>
        <path style="opacity:1" fill="#7a7665"
            d="M 189.5,265.5 C 192.287,264.523 195.287,264.19 198.5,264.5C 198.737,265.791 198.404,266.791 197.5,267.5C 195.365,265.631 192.698,264.964 189.5,265.5 Z" />
    </g>
    <g>
        <path style="opacity:1" fill="#cfd2c1"
            d="M 236.5,260.5 C 236.5,259.5 236.5,258.5 236.5,257.5C 190.664,257.168 144.997,257.501 99.5,258.5C 98.7109,258.217 98.0442,257.717 97.5,257C 145.167,256.333 192.833,256.333 240.5,257C 239.295,258.376 237.962,259.542 236.5,260.5 Z" />
    </g>
    <g>
        <path style="opacity:1" fill="#e9f9e7"
            d="M 254.5,183.5 C 254.5,179.833 254.5,176.167 254.5,172.5C 257.455,173.159 260.455,173.492 263.5,173.5C 263.5,176.833 263.5,180.167 263.5,183.5C 260.5,183.5 257.5,183.5 254.5,183.5 Z" />
    </g>
    <g>
        <path style="opacity:1" fill="#e6f9e4"
            d="M 272.5,183.5 C 272.5,180.167 272.5,176.833 272.5,173.5C 275.5,173.5 278.5,173.5 281.5,173.5C 281.5,176.833 281.5,180.167 281.5,183.5C 278.5,183.5 275.5,183.5 272.5,183.5 Z" />
    </g>
    <g>
        <path style="opacity:1" fill="#e9fbeb"
            d="M 236.5,166.5 C 238.234,169.2 240.568,171.2 243.5,172.5C 244.679,175.371 244.679,178.204 243.5,181C 239.789,181.825 236.122,181.659 232.5,180.5C 233.57,176.224 233.57,171.724 232.5,167C 233.579,163.948 234.912,163.782 236.5,166.5 Z" />
    </g>
    <g>
        <path style="opacity:1" fill="#829346"
            d="M 279.5,121.5 C 283.876,122.024 287.043,124.357 289,128.5C 290.971,138.18 290.971,147.847 289,157.5C 287.749,160.381 285.583,162.214 282.5,163C 276.039,163.67 269.706,163.17 263.5,161.5C 263.5,163.833 263.5,166.167 263.5,168.5C 259.991,168.192 258.324,166.192 258.5,162.5C 259.467,163.806 260.801,164.473 262.5,164.5C 262.286,162.856 262.62,161.356 263.5,160C 267.737,159.903 271.904,160.403 276,161.5C 282.004,162.302 286.004,159.968 288,154.5C 288.846,145.447 288.513,136.447 287,127.5C 284.886,124.879 282.386,122.879 279.5,121.5 Z" />
    </g>
    <g>
        <path style="opacity:1" fill="#7b8c2c"
            d="M 241.5,160.5 C 240.833,160.5 240.5,160.167 240.5,159.5C 240.17,152.468 240.503,145.468 241.5,138.5C 242.748,137.96 243.915,137.293 245,136.5C 245.832,144.853 245.665,153.187 244.5,161.5C 243.583,160.873 242.583,160.539 241.5,160.5 Z" />
    </g>
    <g>
        <path style="opacity:1" fill="#839442"
            d="M 261.5,110.5 C 258.866,112.969 256.366,115.636 254,118.5C 251.263,131.839 251.096,145.172 253.5,158.5C 255.415,158.216 257.081,158.549 258.5,159.5C 256.83,159.751 255.33,160.418 254,161.5C 249.787,152.672 248.454,143.339 250,133.5C 249.137,125.086 251.637,117.919 257.5,112C 258.745,111.209 260.078,110.709 261.5,110.5 Z" />
    </g>
    <g>
        <path style="opacity:1" fill="#787b35"
            d="M 241.5,160.5 C 242.583,160.539 243.583,160.873 244.5,161.5C 245.665,153.187 245.832,144.853 245,136.5C 243.915,137.293 242.748,137.96 241.5,138.5C 240.503,145.468 240.17,152.468 240.5,159.5C 239.345,152.345 239.178,145.012 240,137.5C 241.684,135.649 243.517,133.982 245.5,132.5C 246.213,142.843 246.879,153.177 247.5,163.5C 247.167,164.167 246.833,164.833 246.5,165.5C 243.788,164.788 242.121,163.121 241.5,160.5 Z" />
    </g>
    <g>
        <path style="opacity:1" fill="#85aa40"
            d="M 279.5,121.5 C 282.386,122.879 284.886,124.879 287,127.5C 288.513,136.447 288.846,145.447 288,154.5C 286.004,159.968 282.004,162.302 276,161.5C 271.904,160.403 267.737,159.903 263.5,160C 262.62,161.356 262.286,162.856 262.5,164.5C 260.801,164.473 259.467,163.806 258.5,162.5C 258.5,161.5 258.5,160.5 258.5,159.5C 257.081,158.549 255.415,158.216 253.5,158.5C 251.096,145.172 251.263,131.839 254,118.5C 256.366,115.636 258.866,112.969 261.5,110.5C 265.634,109.515 269.968,109.182 274.5,109.5C 275.392,113.847 277.058,117.847 279.5,121.5 Z" />
    </g>
    <g>
        <path style="opacity:1" fill="#352202"
            d="M 264.5,137.5 C 268.886,136.513 271.22,138.179 271.5,142.5C 271.814,146.562 270.147,149.228 266.5,150.5C 265.006,150.291 263.839,149.624 263,148.5C 262.112,144.598 262.612,140.931 264.5,137.5 Z" />
    </g>
    <g>
        <path style="opacity:1" fill="#311904"
            d="M 209.5,45.5 C 191.365,39.2571 172.699,36.9238 153.5,38.5C 148.518,39.0534 143.518,39.3867 138.5,39.5C 138.5,38.5 138.5,37.5 138.5,36.5C 141.166,36.067 143.832,35.567 146.5,35C 144.699,34.6827 144.366,34.016 145.5,33C 164.197,30.5209 182.864,31.1875 201.5,35C 206.044,38.3776 210.377,41.3776 214.5,44C 212.975,45.0086 211.308,45.5086 209.5,45.5 Z" />
    </g>
    <g>
        <path style="opacity:1" fill="#2a1b0a"
            d="M 189.5,265.5 C 192.698,264.964 195.365,265.631 197.5,267.5C 189.602,267.886 189.602,268.886 197.5,270.5C 195.833,271.167 194.167,271.833 192.5,272.5C 194.5,273.167 196.5,273.833 198.5,274.5C 195.572,275.484 192.572,275.817 189.5,275.5C 189.5,272.167 189.5,268.833 189.5,265.5 Z" />
    </g>
    <g>
        <path style="opacity:1" fill="#322417"
            d="M 183.5,264.5 C 184.675,264.281 185.675,264.614 186.5,265.5C 185.091,269.316 183.424,272.983 181.5,276.5C 179.087,273.627 177.42,270.294 176.5,266.5C 177.325,265.614 178.325,265.281 179.5,265.5C 180.662,273.06 181.995,272.727 183.5,264.5 Z" />
    </g>
    <g>
        <path style="opacity:1" fill="#2e2319"
            d="M 166.5,264.5 C 171.034,264.093 173.701,266.093 174.5,270.5C 173.335,275.581 170.335,277.248 165.5,275.5C 164.092,274.089 163.092,272.423 162.5,270.5C 163.432,268.235 164.765,266.235 166.5,264.5 Z" />
    </g>
    <g>
        <path style="opacity:1" fill="#e1e4d2"
            d="M 166.5,267.5 C 171.159,267.015 172.492,268.848 170.5,273C 165.728,273.81 164.395,271.977 166.5,267.5 Z" />
    </g>
    <g>
        <path style="opacity:1" fill="#e5f0dd"
            d="M 166.5,264.5 C 164.765,266.235 163.432,268.235 162.5,270.5C 163.092,272.423 164.092,274.089 165.5,275.5C 164.022,275.238 162.689,275.571 161.5,276.5C 161.709,277.086 162.043,277.586 162.5,278C 160.998,278.583 159.665,279.416 158.5,280.5C 173.94,282.467 189.273,281.467 204.5,277.5C 181.948,286.376 159.281,286.709 136.5,278.5C 138.288,278.785 139.955,278.452 141.5,277.5C 141.333,277.167 141.167,276.833 141,276.5C 138.614,275.237 136.781,273.403 135.5,271C 134.262,271.077 133.262,270.911 132.5,270.5C 134.833,268.333 137.167,266.167 139.5,264C 144.519,263.942 149.352,263.108 154,261.5C 156.394,262.951 158.561,262.618 160.5,260.5C 162.488,261.289 162.821,262.455 161.5,264C 163.134,264.494 164.801,264.66 166.5,264.5 Z" />
    </g>
    <g>
        <path style="opacity:1" fill="#352919"
            d="M 151.5,264.5 C 154.602,264.154 157.435,264.821 160,266.5C 158.952,269.597 158.452,272.931 158.5,276.5C 157.065,275.176 156.065,273.51 155.5,271.5C 154.833,273.167 154.167,274.833 153.5,276.5C 152.914,276.291 152.414,275.957 152,275.5C 151.501,271.848 151.335,268.182 151.5,264.5 Z" />
    </g>
    <g>
        <path style="opacity:1" fill="#2c2117"
            d="M 141.5,264.5 C 144.755,264.014 147.422,265.014 149.5,267.5C 146.956,267.949 144.29,267.949 141.5,267.5C 140.599,271.241 141.932,273.241 145.5,273.5C 145.5,272.5 145.5,271.5 145.5,270.5C 146.5,270.5 147.5,270.5 148.5,270.5C 147.32,275.66 144.32,276.827 139.5,274C 137.861,270.327 138.528,267.16 141.5,264.5 Z" />
    </g>
    <g>
        <path style="opacity:1" fill="#cfbdad"
            d="M 154.5,266.5 C 157.674,266.952 158.007,267.952 155.5,269.5C 154.614,268.675 154.281,267.675 154.5,266.5 Z" />
    </g>
</svg>